<svg width="16" height="20" viewBox="0 0 16 20" fill="none" xmlns="http://www.w3.org/2000/svg">
<path fill-rule="evenodd" clip-rule="evenodd" d="M9.00018 1C9.00018 0.447715 8.55247 0 8.00018 0C7.4479 0 7.00018 0.447715 7.00018 1V1.75H6.44277C4.21769 1.75 2.3761 3.48001 2.2372 5.70074L2.0162 9.2342C1.93194 10.5814 1.47965 11.8797 0.708587 12.9876C0.011905 13.9886 0.632125 15.3712 1.84306 15.5165L5.25018 15.9254V17C5.25018 18.5188 6.4814 19.75 8.00018 19.75C9.51897 19.75 10.7502 18.5188 10.7502 17V15.9254L14.1573 15.5165C15.3682 15.3712 15.9885 13.9886 15.2918 12.9876C14.5207 11.8797 14.0684 10.5814 13.9842 9.2342L13.7632 5.70074C13.6243 3.48001 11.7827 1.75 9.55759 1.75H9.00018V1ZM6.44277 3.25C5.00976 3.25 3.82373 4.36417 3.73427 5.79438L3.51327 9.32784C3.41188 10.949 2.86762 12.5112 1.93977 13.8444C1.88942 13.9168 1.93425 14.0167 2.02177 14.0272L5.75943 14.4757C7.24792 14.6543 8.75243 14.6543 10.2409 14.4757L13.9786 14.0272C14.0661 14.0167 14.1109 13.9168 14.0606 13.8444C13.1327 12.5112 12.5885 10.949 12.4871 9.32784L12.2661 5.79438C12.1766 4.36417 10.9906 3.25 9.55759 3.25H6.44277ZM8.00018 18.25C7.30983 18.25 6.75018 17.6904 6.75018 17V16.25H9.25018V17C9.25018 17.6904 8.69054 18.25 8.00018 18.25Z" fill="black"/>
</svg>
