<svg width="82" height="34" viewBox="0 0 82 34" fill="none" xmlns="http://www.w3.org/2000/svg">
<path d="M29.6484 22.1719V24H23.5938V22.1719H29.6484ZM24.3594 12.625V24H22.0156V12.625H24.3594ZM28.8594 17.2578V19.0391H23.5938V17.2578H28.8594ZM29.6406 12.625V14.4609H23.5938V12.625H29.6406ZM38.6584 22.1719V24H32.6038V22.1719H38.6584ZM33.3694 12.625V24H31.0256V12.625H33.3694ZM37.8694 17.2578V19.0391H32.6038V17.2578H37.8694ZM38.6506 12.625V14.4609H32.6038V12.625H38.6506ZM40.0356 12.625H44.2778C45.1476 12.625 45.895 12.7552 46.52 13.0156C47.1502 13.276 47.6346 13.6615 47.9731 14.1719C48.3117 14.6823 48.4809 15.3099 48.4809 16.0547C48.4809 16.6641 48.3768 17.1875 48.1684 17.625C47.9653 18.0573 47.6763 18.4193 47.3013 18.7109C46.9315 18.9974 46.4966 19.2266 45.9966 19.3984L45.2544 19.7891H41.5669L41.5513 17.9609H44.2934C44.7049 17.9609 45.046 17.888 45.3169 17.7422C45.5877 17.5964 45.7908 17.3932 45.9263 17.1328C46.0669 16.8724 46.1372 16.5703 46.1372 16.2266C46.1372 15.862 46.0695 15.5469 45.9341 15.2812C45.7986 15.0156 45.5929 14.8125 45.3169 14.6719C45.0408 14.5312 44.6945 14.4609 44.2778 14.4609H42.3794V24H40.0356V12.625ZM46.395 24L43.8013 18.9297L46.2778 18.9141L48.9028 23.8906V24H46.395ZM61.6025 22.1719V24H55.8759V22.1719H61.6025ZM56.6338 12.625V24H54.29V12.625H56.6338ZM71.7844 18.0469V18.5859C71.7844 19.4505 71.6672 20.2266 71.4328 20.9141C71.1984 21.6016 70.8677 22.1875 70.4406 22.6719C70.0135 23.151 69.5031 23.5182 68.9094 23.7734C68.3208 24.0286 67.6672 24.1562 66.9484 24.1562C66.2349 24.1562 65.5812 24.0286 64.9875 23.7734C64.399 23.5182 63.8885 23.151 63.4562 22.6719C63.024 22.1875 62.688 21.6016 62.4484 20.9141C62.2141 20.2266 62.0969 19.4505 62.0969 18.5859V18.0469C62.0969 17.1771 62.2141 16.401 62.4484 15.7188C62.6828 15.0312 63.0135 14.4453 63.4406 13.9609C63.8729 13.4766 64.3833 13.1068 64.9719 12.8516C65.5656 12.5964 66.2193 12.4688 66.9328 12.4688C67.6516 12.4688 68.3052 12.5964 68.8937 12.8516C69.4875 13.1068 69.9979 13.4766 70.425 13.9609C70.8573 14.4453 71.1906 15.0312 71.425 15.7188C71.6646 16.401 71.7844 17.1771 71.7844 18.0469ZM69.4172 18.5859V18.0312C69.4172 17.4271 69.3625 16.8958 69.2531 16.4375C69.1437 15.9792 68.9823 15.5938 68.7687 15.2812C68.5552 14.9688 68.2948 14.7344 67.9875 14.5781C67.6802 14.4167 67.3286 14.3359 66.9328 14.3359C66.537 14.3359 66.1854 14.4167 65.8781 14.5781C65.576 14.7344 65.3182 14.9688 65.1047 15.2812C64.8964 15.5938 64.7375 15.9792 64.6281 16.4375C64.5187 16.8958 64.4641 17.4271 64.4641 18.0312V18.5859C64.4641 19.1849 64.5187 19.7161 64.6281 20.1797C64.7375 20.638 64.899 21.026 65.1125 21.3438C65.326 21.6562 65.5865 21.8932 65.8937 22.0547C66.201 22.2161 66.5526 22.2969 66.9484 22.2969C67.3443 22.2969 67.6958 22.2161 68.0031 22.0547C68.3104 21.8932 68.5682 21.6562 68.7766 21.3438C68.9849 21.026 69.1437 20.638 69.2531 20.1797C69.3625 19.7161 69.4172 19.1849 69.4172 18.5859ZM78.0366 12.625V24H75.7006V12.625H78.0366ZM81.5366 12.625V14.4609H72.2553V12.625H81.5366Z" fill="black"/>
<rect x="1.16106" y="3.6887" width="16.6806" height="0.962265" rx="0.481132" fill="white" stroke="black" stroke-width="0.962265"/>
<path d="M0.68623 6.93373L1.75692 4.99055H17.2431L18.3138 6.93373C18.4359 7.15545 18.5 7.40448 18.5 7.65762V30.8329C18.5 31.0861 18.4359 31.3351 18.3138 31.5568L17.6707 32.7239C17.4069 33.2026 16.9036 33.5 16.357 33.5H2.64305C2.09642 33.5 1.59307 33.2026 1.32928 32.7239L0.68623 31.5568C0.564066 31.3351 0.5 31.0861 0.5 30.8329V7.65762C0.5 7.40448 0.564066 7.15545 0.68623 6.93373Z" fill="white" stroke="black"/>
<path d="M14.7 3.27778H12.66V1.93835C12.66 1.62659 12.8026 1.33195 13.0471 1.13849C13.418 0.844969 13.9421 0.844969 14.313 1.13849C14.5575 1.33195 14.7 1.62659 14.7 1.93835V3.27778Z" fill="white" stroke="black"/>
<rect x="0.5" y="7.55663" width="18" height="23.3774" rx="0.5" fill="url(#paint0_linear_1483_13424)" stroke="black"/>
<path d="M10.4688 19.0078H7.54688L7.53125 17.3984H9.98438C10.4167 17.3984 10.7708 17.3438 11.0469 17.2344C11.3229 17.1198 11.5286 16.9557 11.6641 16.7422C11.8047 16.5234 11.875 16.2578 11.875 15.9453C11.875 15.5911 11.8073 15.3047 11.6719 15.0859C11.5417 14.8672 11.3359 14.7083 11.0547 14.6094C10.7786 14.5104 10.4219 14.4609 9.98438 14.4609H8.35938V24H6.01562V12.625H9.98438C10.6458 12.625 11.237 12.6875 11.7578 12.8125C12.2839 12.9375 12.7292 13.1276 13.0938 13.3828C13.4583 13.638 13.737 13.9609 13.9297 14.3516C14.1224 14.737 14.2188 15.1953 14.2188 15.7266C14.2188 16.1953 14.112 16.6276 13.8984 17.0234C13.6901 17.4193 13.3594 17.7422 12.9062 17.9922C12.4583 18.2422 11.8724 18.3802 11.1484 18.4062L10.4688 19.0078ZM10.3672 24H6.90625L7.82031 22.1719H10.3672C10.7786 22.1719 11.1146 22.1068 11.375 21.9766C11.6354 21.8411 11.8281 21.6589 11.9531 21.4297C12.0781 21.2005 12.1406 20.9375 12.1406 20.6406C12.1406 20.3073 12.0833 20.0182 11.9688 19.7734C11.8594 19.5286 11.6823 19.3411 11.4375 19.2109C11.1927 19.0755 10.8698 19.0078 10.4688 19.0078H8.21094L8.22656 17.3984H11.0391L11.5781 18.0312C12.2708 18.0208 12.8281 18.1432 13.25 18.3984C13.6771 18.6484 13.987 18.974 14.1797 19.375C14.3776 19.776 14.4766 20.2057 14.4766 20.6641C14.4766 21.3932 14.3177 22.0078 14 22.5078C13.6823 23.0026 13.2161 23.375 12.6016 23.625C11.9922 23.875 11.2474 24 10.3672 24Z" fill="black"/>
<defs>
<linearGradient id="paint0_linear_1483_13424" x1="9.5" y1="7.05663" x2="9.5" y2="31.434" gradientUnits="userSpaceOnUse">
<stop stop-color="white"/>
<stop offset="1" stop-color="#FEA801"/>
</linearGradient>
</defs>
</svg>
