<svg width="95" height="19" viewBox="0 0 95 19" fill="none" xmlns="http://www.w3.org/2000/svg">
<path fill-rule="evenodd" clip-rule="evenodd" d="M2.5 0C1.11929 0 0 1.11929 0 2.5V16.5C0 17.8807 1.11929 19 2.5 19H5.10984H10.2206H12.592H12.5957C14.7236 18.998 16.4479 17.2724 16.4479 15.1441C16.4479 13.4004 15.2905 11.927 13.702 11.4503C15.3594 10.3229 16.4479 8.42149 16.4479 6.26587C16.4479 2.8182 13.6634 0.0208833 10.2206 0.000116382V0H10.182H2.5Z" fill="#FAD12B"/>
<ellipse cx="6.06121" cy="6.45081" rx="2.70281" ry="3.45959" fill="white"/>
<ellipse cx="10.3864" cy="6.45081" rx="2.70281" ry="3.45959" fill="white"/>
<ellipse cx="7.0407" cy="5.57108" rx="1.44597" ry="2.09647" fill="#333333"/>
<ellipse cx="11.3844" cy="5.57108" rx="1.44597" ry="2.09647" fill="#333333"/>
<path d="M32.5373 9.40977C32.3585 9.51108 32.3821 9.86179 32.5685 9.94848C33.0061 10.1521 33.395 10.4675 33.7352 10.8949C34.2522 11.5445 34.5107 12.2803 34.5107 13.1023C34.5107 13.8049 34.3251 14.4413 33.9539 15.0114C33.596 15.5682 33.0723 16.0123 32.3829 16.3438C31.6935 16.6619 30.8914 16.821 29.9767 16.821H25.4482C24.896 16.821 24.4482 16.3733 24.4482 15.821V4C24.4482 3.44772 24.896 3 25.4482 3H29.7181C30.6594 3 31.4681 3.15909 32.1443 3.47727C32.8204 3.79546 33.3308 4.22633 33.6755 4.76989C34.0202 5.30019 34.1926 5.89678 34.1926 6.55966C34.1926 7.35511 33.9804 8.01799 33.5562 8.5483C33.2789 8.89493 32.9393 9.18209 32.5373 9.40977ZM26.7153 8.80682H29.5193C30.2617 8.80682 30.8384 8.6411 31.2494 8.30966C31.6736 7.96496 31.8857 7.47443 31.8857 6.83807C31.8857 6.21496 31.6736 5.73106 31.2494 5.38636C30.8384 5.02841 30.2617 4.84943 29.5193 4.84943H26.7153V8.80682ZM29.7778 14.9716C30.5467 14.9716 31.1499 14.786 31.5874 14.4148C32.0249 14.0436 32.2437 13.5265 32.2437 12.8636C32.2437 12.1875 32.0117 11.6506 31.5477 11.2528C31.0837 10.8551 30.4672 10.6563 29.6982 10.6563H26.7153V14.9716H29.7778Z" fill="#333333"/>
<path d="M46.1954 10.9875C46.1954 11.0777 46.1942 11.166 46.1916 11.2523C46.1771 11.7434 45.7545 12.1011 45.2632 12.1011H37.7437C37.81 12.9761 38.1348 13.6787 38.7182 14.209C39.3015 14.7393 40.0174 15.0045 40.8659 15.0045C41.8533 15.0045 42.6061 14.67 43.1244 14.0009C43.3574 13.7 43.6921 13.4732 44.0728 13.4732H44.5155C45.1964 13.4732 45.6749 14.1471 45.2937 14.7113C44.9755 15.1824 44.5734 15.5983 44.0875 15.959C43.2257 16.5954 42.1519 16.9136 40.8659 16.9136C39.8185 16.9136 38.8773 16.6816 38.042 16.2176C37.2201 15.7403 36.5704 15.0774 36.0932 14.2289C35.6291 13.3672 35.3971 12.3729 35.3971 11.246C35.3971 10.1191 35.6225 9.13139 36.0733 8.28291C36.5373 7.42116 37.1803 6.75829 38.0023 6.29427C38.8375 5.83026 39.792 5.59825 40.8659 5.59825C41.9 5.59825 42.8214 5.82363 43.6301 6.27438C44.4388 6.72514 45.0685 7.36151 45.5193 8.18348C45.9701 8.99219 46.1954 9.92685 46.1954 10.9875ZM43.829 10.2715C43.8157 9.43632 43.5174 8.76681 42.9341 8.26302C42.3507 7.75923 41.6282 7.50734 40.7665 7.50734C39.9843 7.50734 39.3148 7.75923 38.7579 8.26302C38.2011 8.75355 37.8697 9.42306 37.7636 10.2715H43.829Z" fill="#333333"/>
<path d="M58.037 10.9875C58.037 11.0777 58.0357 11.166 58.0332 11.2523C58.0186 11.7434 57.596 12.1011 57.1047 12.1011H49.5853C49.6516 12.9761 49.9764 13.6787 50.5597 14.209C51.1431 14.7393 51.859 15.0045 52.7074 15.0045C53.6949 15.0045 54.4477 14.67 54.9659 14.0009C55.199 13.7 55.5337 13.4732 55.9143 13.4732H56.357C57.0379 13.4732 57.5165 14.1471 57.1353 14.7113C56.817 15.1824 56.4149 15.5983 55.929 15.959C55.0673 16.5954 53.9934 16.9136 52.7074 16.9136C51.6601 16.9136 50.7188 16.6816 49.8836 16.2176C49.0616 15.7403 48.412 15.0774 47.9347 14.2289C47.4707 13.3672 47.2387 12.3729 47.2387 11.246C47.2387 10.1191 47.4641 9.13139 47.9148 8.28291C48.3789 7.42116 49.0218 6.75829 49.8438 6.29427C50.679 5.83026 51.6336 5.59825 52.7074 5.59825C53.7415 5.59825 54.6629 5.82363 55.4717 6.27438C56.2804 6.72514 56.9101 7.36151 57.3609 8.18348C57.8116 8.99219 58.037 9.92685 58.037 10.9875ZM55.6705 10.2715C55.6573 9.43632 55.359 8.76681 54.7756 8.26302C54.1923 7.75923 53.4698 7.50734 52.608 7.50734C51.8258 7.50734 51.1563 7.75923 50.5995 8.26302C50.0427 8.75355 49.7112 9.42306 49.6052 10.2715H55.6705Z" fill="#333333"/>
<path d="M61.6709 7.36813C62.0024 6.81132 62.4399 6.38045 62.9834 6.07552C63.2805 5.90576 63.6059 5.78128 63.9596 5.7021C64.4985 5.58143 64.9522 6.04596 64.9522 6.59825V7.36813C64.9522 7.68664 64.694 7.94484 64.3755 7.94484V7.94484C63.4872 7.94484 62.8111 8.17022 62.3471 8.62098C61.8963 9.07173 61.6709 9.85393 61.6709 10.9676V15.7346C61.6709 16.2869 61.2232 16.7346 60.6709 16.7346H60.4039C59.8516 16.7346 59.4039 16.2869 59.4039 15.7346V6.77722C59.4039 6.22494 59.8516 5.77723 60.4039 5.77723H60.6709C61.2232 5.77723 61.6709 6.22494 61.6709 6.77723V7.36813Z" fill="#333333"/>
<path d="M71.4208 14.9915H75.1793C75.6845 14.9915 76.0941 15.401 76.0941 15.9063V15.9063C76.0941 16.4115 75.6845 16.821 75.1793 16.821H70.1537C69.6014 16.821 69.1537 16.3733 69.1537 15.821V4C69.1537 3.44772 69.6014 3 70.1537 3H70.4208C70.973 3 71.4208 3.44772 71.4208 4V14.9915Z" fill="#333333"/>
<path d="M81.7709 17C80.7368 17 79.8022 16.768 78.9669 16.304C78.1317 15.8267 77.4755 15.1638 76.9982 14.3153C76.5209 13.4536 76.2823 12.4593 76.2823 11.3324C76.2823 10.2188 76.5275 9.23106 77.0181 8.36932C77.5086 7.50758 78.1781 6.8447 79.0266 6.38068C79.8751 5.91667 80.823 5.68466 81.8704 5.68466C82.9177 5.68466 83.8656 5.91667 84.7141 6.38068C85.5626 6.8447 86.2321 7.50758 86.7226 8.36932C87.2132 9.23106 87.4584 10.2188 87.4584 11.3324C87.4584 12.446 87.2065 13.4337 86.7027 14.2955C86.199 15.1572 85.5096 15.8267 84.6346 16.304C83.7728 16.768 82.8183 17 81.7709 17ZM81.7709 15.0313C82.3543 15.0313 82.8978 14.892 83.4016 14.6136C83.9186 14.3352 84.3363 13.9176 84.6544 13.3608C84.9726 12.804 85.1317 12.1278 85.1317 11.3324C85.1317 10.5369 84.9793 9.86742 84.6743 9.32386C84.3694 8.76705 83.965 8.34943 83.4613 8.07102C82.9575 7.79261 82.4139 7.65341 81.8306 7.65341C81.2472 7.65341 80.7037 7.79261 80.1999 8.07102C79.7094 8.34943 79.3183 8.76705 79.0266 9.32386C78.7349 9.86742 78.5891 10.5369 78.5891 11.3324C78.5891 12.5123 78.8874 13.4271 79.484 14.0767C80.0938 14.7131 80.8561 15.0313 81.7709 15.0313Z" fill="#333333"/>
<path d="M91.5492 7.71307V13.7784C91.5492 14.1894 91.642 14.4877 91.8277 14.6733C92.0265 14.8456 92.358 14.9318 92.822 14.9318H93.2694C93.7911 14.9318 94.214 15.3547 94.214 15.8764V15.8764C94.214 16.3981 93.7911 16.821 93.2694 16.821H92.4242C91.4034 16.821 90.6212 16.5824 90.0777 16.1051C89.5341 15.6278 89.2623 14.8523 89.2623 13.7784V7.71307H88.8944C88.3837 7.71307 87.9697 7.29906 87.9697 6.78835V6.78835C87.9697 6.27765 88.3837 5.86364 88.8944 5.86364H89.2623V4.1392C89.2623 3.58692 89.71 3.13921 90.2623 3.13921H90.5492C91.1015 3.13921 91.5492 3.58692 91.5492 4.13921V5.86364H93.2893C93.8 5.86364 94.214 6.27765 94.214 6.78835V6.78835C94.214 7.29906 93.8 7.71307 93.2893 7.71307H91.5492Z" fill="#333333"/>
</svg>
