<svg width="330" height="330" viewBox="0 0 330 330" fill="none" xmlns="http://www.w3.org/2000/svg">
<rect width="330" height="330" fill="#F6F6F6"/>
<rect x="132.643" y="112.381" width="64" height="3.27334" rx="1.63667" fill="white" stroke="#61646B"/>
<path d="M130.67 125.436L135.688 115.832H194.312L199.33 125.436C199.442 125.65 199.5 125.888 199.5 126.13V219.202C199.5 219.444 199.442 219.682 199.33 219.896L194.733 228.695C194.475 229.19 193.962 229.5 193.404 229.5H136.596C136.038 229.5 135.525 229.19 135.267 228.695L130.67 219.896L130.227 220.128L130.67 219.896C130.558 219.682 130.5 219.444 130.5 219.202V126.13C130.5 125.888 130.558 125.65 130.67 125.436Z" fill="white" stroke="#61646B"/>
<path d="M183.427 112.32H175.855V106.44C175.855 105.511 176.197 104.615 176.815 103.921C178.321 102.233 180.962 102.233 182.467 103.921C183.085 104.615 183.427 105.511 183.427 106.44V112.32Z" fill="white" stroke="#61646B"/>
<rect x="130.5" y="125.803" width="69" height="93.7258" rx="0.5" fill="#DDDDDD" stroke="#61646B"/>
</svg>
