<svg width="110" height="43" viewBox="0 0 110 43" fill="none" xmlns="http://www.w3.org/2000/svg">
<path d="M37.8916 29.4863V32H29.5664V29.4863H37.8916ZM30.6191 16.3594V32H27.3965V16.3594H30.6191ZM36.8066 22.7295V25.1787H29.5664V22.7295H36.8066ZM37.8809 16.3594V18.8838H29.5664V16.3594H37.8809ZM50.2766 29.4863V32H41.9514V29.4863H50.2766ZM43.0041 16.3594V32H39.7815V16.3594H43.0041ZM49.1916 22.7295V25.1787H41.9514V22.7295H49.1916ZM50.2659 16.3594V18.8838H41.9514V16.3594H50.2659ZM52.1665 16.3594H57.9995C59.1955 16.3594 60.2231 16.5384 61.0825 16.8965C61.949 17.2546 62.6151 17.7845 63.0805 18.4863C63.546 19.1882 63.7788 20.0511 63.7788 21.0752C63.7788 21.9131 63.6356 22.6328 63.3491 23.2344C63.0698 23.8288 62.6723 24.3265 62.1567 24.7275C61.6483 25.1214 61.0503 25.4365 60.3628 25.6729L59.3423 26.21H54.272L54.2505 23.6963H58.021C58.5867 23.6963 59.0558 23.596 59.4282 23.3955C59.8006 23.195 60.0799 22.9157 60.2661 22.5576C60.4595 22.1995 60.5561 21.7842 60.5561 21.3115C60.5561 20.8102 60.463 20.377 60.2768 20.0117C60.0906 19.6465 59.8078 19.3672 59.4282 19.1738C59.0486 18.9805 58.5724 18.8838 57.9995 18.8838H55.3891V32H52.1665V16.3594ZM60.9106 32L57.3442 25.0283L60.7495 25.0068L64.3589 31.8496V32H60.9106ZM81.8134 29.4863V32H73.9394V29.4863H81.8134ZM74.9814 16.3594V32H71.7588V16.3594H74.9814ZM95.8098 23.8145V24.5557C95.8098 25.7445 95.6486 26.8115 95.3264 27.7568C95.0041 28.7021 94.5493 29.5078 93.9621 30.1738C93.3749 30.8327 92.673 31.3376 91.8566 31.6885C91.0474 32.0394 90.1486 32.2148 89.1604 32.2148C88.1792 32.2148 87.2805 32.0394 86.4641 31.6885C85.6548 31.3376 84.953 30.8327 84.3586 30.1738C83.7642 29.5078 83.3023 28.7021 82.9729 27.7568C82.6506 26.8115 82.4895 25.7445 82.4895 24.5557V23.8145C82.4895 22.6185 82.6506 21.5514 82.9729 20.6133C83.2951 19.668 83.7499 18.8623 84.3371 18.1963C84.9315 17.5303 85.6333 17.0218 86.4426 16.6709C87.259 16.32 88.1577 16.1445 89.1389 16.1445C90.1271 16.1445 91.0259 16.32 91.8352 16.6709C92.6516 17.0218 93.3534 17.5303 93.9406 18.1963C94.535 18.8623 94.9934 19.668 95.3156 20.6133C95.6451 21.5514 95.8098 22.6185 95.8098 23.8145ZM92.5549 24.5557V23.793C92.5549 22.9622 92.4797 22.2318 92.3293 21.6016C92.1789 20.9714 91.9569 20.4414 91.6633 20.0117C91.3697 19.582 91.0116 19.2598 90.5891 19.0449C90.1665 18.8229 89.6831 18.7119 89.1389 18.7119C88.5946 18.7119 88.1112 18.8229 87.6887 19.0449C87.2733 19.2598 86.9188 19.582 86.6252 20.0117C86.3387 20.4414 86.1203 20.9714 85.9699 21.6016C85.8195 22.2318 85.7443 22.9622 85.7443 23.793V24.5557C85.7443 25.3792 85.8195 26.1097 85.9699 26.7471C86.1203 27.3773 86.3423 27.9108 86.6359 28.3477C86.9296 28.7773 87.2876 29.1032 87.7102 29.3252C88.1327 29.5472 88.6161 29.6582 89.1604 29.6582C89.7046 29.6582 90.188 29.5472 90.6105 29.3252C91.0331 29.1032 91.3876 28.7773 91.674 28.3477C91.9605 27.9108 92.1789 27.3773 92.3293 26.7471C92.4797 26.1097 92.5549 25.3792 92.5549 24.5557ZM104.403 16.3594V32H101.191V16.3594H104.403ZM109.215 16.3594V18.8838H96.4536V16.3594H109.215Z" fill="black"/>
<rect x="1.35889" y="4.55164" width="21.2857" height="1.43098" rx="0.715492" fill="white" stroke="black"/>
<path d="M0.68623 8.81347L2.14153 6.17226H21.8585L23.3138 8.81347C23.4359 9.03519 23.5 9.28421 23.5 9.53736V39.0822C23.5 39.3354 23.4359 39.5844 23.3138 39.8061L22.2861 41.6712C22.0223 42.15 21.519 42.4473 20.9723 42.4473H3.02766C2.48104 42.4473 1.97769 42.15 1.71389 41.6712L0.68623 39.8061C0.564066 39.5844 0.5 39.3354 0.5 39.0822V9.53736C0.5 9.28421 0.564066 9.03519 0.68623 8.81347Z" fill="white" stroke="black"/>
<path d="M18.7 4.27193H15.86V2.44844C15.86 2.01443 16.0585 1.60424 16.3988 1.33492C16.9152 0.926284 17.6448 0.926284 18.1612 1.33492C18.5015 1.60424 18.7 2.01443 18.7 2.44844V4.27193Z" fill="white" stroke="black"/>
<rect x="0.5" y="9.4136" width="23" height="29.7925" rx="0.5" fill="url(#paint0_linear_1484_13055)" stroke="black"/>
<path d="M12.8353 25.0305H8.81775L8.79626 22.8176H12.1693C12.7637 22.8176 13.2507 22.7424 13.6302 22.592C14.0098 22.4345 14.2927 22.2089 14.4789 21.9153C14.6722 21.6145 14.7689 21.2492 14.7689 20.8195C14.7689 20.3326 14.6758 19.9387 14.4896 19.6379C14.3106 19.3371 14.0277 19.1187 13.641 18.9826C13.2614 18.8466 12.7709 18.7785 12.1693 18.7785H9.93494V31.8947H6.71228V16.2541H12.1693C13.0788 16.2541 13.8916 16.3401 14.6078 16.5119C15.3311 16.6838 15.9434 16.9452 16.4447 17.2961C16.946 17.647 17.3291 18.091 17.5941 18.6281C17.8591 19.1581 17.9916 19.7883 17.9916 20.5188C17.9916 21.1633 17.8448 21.7577 17.5511 22.302C17.2647 22.8462 16.8099 23.2903 16.1869 23.634C15.571 23.9778 14.7653 24.1675 13.7699 24.2033L12.8353 25.0305ZM12.6957 31.8947H7.93689L9.19373 29.3811H12.6957C13.2614 29.3811 13.7233 29.2916 14.0814 29.1125C14.4395 28.9263 14.7045 28.6757 14.8763 28.3606C15.0482 28.0455 15.1342 27.6838 15.1342 27.2756C15.1342 26.8173 15.0554 26.4198 14.8978 26.0832C14.7474 25.7466 14.5039 25.4888 14.1674 25.3098C13.8308 25.1236 13.3868 25.0305 12.8353 25.0305H9.73083L9.75232 22.8176H13.6195L14.3607 23.6877C15.3132 23.6734 16.0795 23.8417 16.6595 24.1926C17.2468 24.5363 17.6729 24.9839 17.9379 25.5354C18.21 26.0868 18.3461 26.6776 18.3461 27.3078C18.3461 28.3104 18.1276 29.1555 17.6908 29.843C17.2539 30.5233 16.613 31.0354 15.7679 31.3791C14.9301 31.7229 13.906 31.8947 12.6957 31.8947Z" fill="black"/>
<defs>
<linearGradient id="paint0_linear_1484_13055" x1="12" y1="8.9136" x2="12" y2="39.7061" gradientUnits="userSpaceOnUse">
<stop stop-color="white"/>
<stop offset="1" stop-color="#FEA801"/>
</linearGradient>
</defs>
</svg>
