<svg width="72" height="30" viewBox="0 0 72 30" fill="none" xmlns="http://www.w3.org/2000/svg">
<path d="M26.0063 19.4248V21.0244H20.7085V19.4248H26.0063ZM21.3784 11.0713V21.0244H19.3276V11.0713H21.3784ZM25.3159 15.125V16.6836H20.7085V15.125H25.3159ZM25.9995 11.0713V12.6777H20.7085V11.0713H25.9995ZM33.8913 19.4248V21.0244H28.5935V19.4248H33.8913ZM29.2634 11.0713V21.0244H27.2126V11.0713H29.2634ZM33.2009 15.125V16.6836H28.5935V15.125H33.2009ZM33.8845 11.0713V12.6777H28.5935V11.0713H33.8845ZM35.0976 11.0713H38.8096C39.5706 11.0713 40.2246 11.1852 40.7715 11.4131C41.3229 11.6409 41.7467 11.9782 42.0429 12.4248C42.3392 12.8714 42.4873 13.4205 42.4873 14.0722C42.4873 14.6054 42.3961 15.0634 42.2138 15.4463C42.0361 15.8245 41.7832 16.1412 41.4551 16.3965C41.1315 16.6471 40.751 16.8476 40.3135 16.998L39.664 17.3398H36.4375L36.4238 15.7402H38.8232C39.1832 15.7402 39.4818 15.6764 39.7187 15.5488C39.9557 15.4212 40.1334 15.2435 40.2519 15.0156C40.375 14.7877 40.4365 14.5234 40.4365 14.2226C40.4365 13.9036 40.3773 13.6279 40.2588 13.3955C40.1403 13.1631 39.9603 12.9853 39.7187 12.8623C39.4772 12.7392 39.1741 12.6777 38.8096 12.6777H37.1484V21.0244H35.0976V11.0713ZM40.6621 21.0244L38.3926 16.5879L40.5596 16.5742L42.8564 20.9287V21.0244H40.6621ZM53.9712 19.4248V21.0244H48.9604V19.4248H53.9712ZM49.6235 11.0713V21.0244H47.5727V11.0713H49.6235ZM62.8815 15.8154V16.2871C62.8815 17.0436 62.779 17.7226 62.5739 18.3242C62.3688 18.9258 62.0795 19.4384 61.7058 19.8623C61.3321 20.2815 60.8854 20.6028 60.3659 20.8261C59.8509 21.0494 59.279 21.1611 58.6501 21.1611C58.0257 21.1611 57.4538 21.0494 56.9343 20.8261C56.4193 20.6028 55.9727 20.2815 55.5944 19.8623C55.2162 19.4384 54.9222 18.9258 54.7126 18.3242C54.5075 17.7226 54.405 17.0436 54.405 16.2871V15.8154C54.405 15.0543 54.5075 14.3753 54.7126 13.7783C54.9177 13.1767 55.2071 12.664 55.5808 12.2402C55.959 11.8164 56.4056 11.4928 56.9206 11.2695C57.4401 11.0462 58.0121 10.9345 58.6364 10.9345C59.2653 10.9345 59.8373 11.0462 60.3522 11.2695C60.8718 11.4928 61.3184 11.8164 61.6921 12.2402C62.0703 12.664 62.362 13.1767 62.5671 13.7783C62.7767 14.3753 62.8815 15.0543 62.8815 15.8154ZM60.8103 16.2871V15.8017C60.8103 15.2731 60.7624 14.8082 60.6667 14.4072C60.571 14.0062 60.4297 13.6689 60.2429 13.3955C60.056 13.122 59.8282 12.917 59.5593 12.7802C59.2904 12.639 58.9828 12.5683 58.6364 12.5683C58.2901 12.5683 57.9825 12.639 57.7136 12.7802C57.4493 12.917 57.2237 13.122 57.0368 13.3955C56.8545 13.6689 56.7155 14.0062 56.6198 14.4072C56.5241 14.8082 56.4763 15.2731 56.4763 15.8017V16.2871C56.4763 16.8112 56.5241 17.276 56.6198 17.6816C56.7155 18.0827 56.8568 18.4222 57.0437 18.7002C57.2305 18.9736 57.4584 19.181 57.7272 19.3222C57.9961 19.4635 58.3037 19.5341 58.6501 19.5341C58.9965 19.5341 59.3041 19.4635 59.5729 19.3222C59.8418 19.181 60.0674 18.9736 60.2497 18.7002C60.432 18.4222 60.571 18.0827 60.6667 17.6816C60.7624 17.276 60.8103 16.8112 60.8103 16.2871ZM68.3535 11.0713V21.0244H66.3095V11.0713H68.3535ZM71.416 11.0713V12.6777H63.2949V11.0713H71.416Z" fill="black"/>
<rect x="1.01938" y="3.23886" width="14.6464" height="0.844915" rx="0.422458" fill="white" stroke="black" stroke-width="0.844915"/>
<path d="M0.68623 6.06263L1.57868 4.44293H15.1042L15.9967 6.06263C16.1189 6.28435 16.1829 6.53337 16.1829 6.78652V27.0101C16.1829 27.2632 16.1189 27.5122 15.9967 27.734L15.5319 28.5775C15.2681 29.0563 14.7647 29.3537 14.2181 29.3537H2.46481C1.91819 29.3537 1.41484 29.0563 1.15104 28.5775L0.68623 27.734C0.564066 27.5122 0.5 27.2632 0.5 27.0101V6.78652C0.5 6.53337 0.564065 6.28435 0.68623 6.06263Z" fill="white" stroke="black"/>
<path d="M11.177 2.81707V1.70197C11.177 1.44686 11.2937 1.20577 11.4937 1.04747C11.7972 0.807286 12.226 0.807286 12.5296 1.04747C12.7296 1.20577 12.8463 1.44686 12.8463 1.70197V2.81707H11.177Z" fill="white" stroke="black"/>
<rect x="0.5" y="6.69604" width="15.6829" height="20.4045" rx="0.5" fill="url(#paint0_linear_1484_13065)" stroke="black"/>
<path d="M9.17542 17.2904H6.61877L6.6051 15.8822H8.75159C9.12984 15.8822 9.43974 15.8343 9.68127 15.7386C9.92281 15.6384 10.1028 15.4948 10.2213 15.308C10.3444 15.1165 10.4059 14.8841 10.4059 14.6107C10.4059 14.3008 10.3466 14.0501 10.2281 13.8587C10.1142 13.6673 9.9342 13.5283 9.68811 13.4417C9.44657 13.3552 9.1344 13.3119 8.75159 13.3119H7.32971V21.6585H5.27893V11.7054H8.75159C9.33036 11.7054 9.84762 11.7601 10.3033 11.8695C10.7636 11.9789 11.1533 12.1452 11.4723 12.3685C11.7913 12.5918 12.0351 12.8744 12.2037 13.2162C12.3724 13.5534 12.4567 13.9544 12.4567 14.4193C12.4567 14.8294 12.3632 15.2077 12.1764 15.554C11.9941 15.9004 11.7047 16.183 11.3082 16.4017C10.9163 16.6205 10.4036 16.7412 9.77014 16.764L9.17542 17.2904ZM9.08655 21.6585H6.05823L6.85803 20.0589H9.08655C9.44657 20.0589 9.74052 20.002 9.96838 19.888C10.1962 19.7695 10.3649 19.61 10.4742 19.4095C10.5836 19.209 10.6383 18.9789 10.6383 18.7191C10.6383 18.4274 10.5882 18.1745 10.4879 17.9603C10.3922 17.7461 10.2373 17.582 10.0231 17.4681C9.80888 17.3496 9.52633 17.2904 9.17542 17.2904H7.19983L7.2135 15.8822H9.67444L10.1461 16.4359C10.7522 16.4268 11.2399 16.5339 11.609 16.7572C11.9827 16.9759 12.2539 17.2608 12.4225 17.6117C12.5957 17.9626 12.6823 18.3386 12.6823 18.7396C12.6823 19.3776 12.5433 19.9154 12.2653 20.3529C11.9873 20.7858 11.5794 21.1117 11.0416 21.3304C10.5084 21.5492 9.85673 21.6585 9.08655 21.6585Z" fill="black"/>
<defs>
<linearGradient id="paint0_linear_1484_13065" x1="8.34146" y1="6.19604" x2="8.34146" y2="27.6006" gradientUnits="userSpaceOnUse">
<stop stop-color="white"/>
<stop offset="1" stop-color="#FEA801"/>
</linearGradient>
</defs>
</svg>
