<svg width="24" height="24" viewBox="0 0 24 24" fill="none" xmlns="http://www.w3.org/2000/svg">
<path d="M7.31649 3.76876C10.404 3.42368 13.5954 3.42368 16.683 3.76876C17.8422 3.89832 18.8598 4.52519 19.5035 5.43559L11.4998 13.4393L9.03009 10.9697C8.73719 10.6768 8.26232 10.6768 7.96943 10.9697C7.67653 11.2626 7.67653 11.7374 7.96943 12.0303L10.9694 15.0303C11.2623 15.3232 11.7372 15.3232 12.0301 15.0303L20.1455 6.9149C20.168 7.02447 20.1859 7.13573 20.1991 7.24849C20.5683 10.4054 20.5683 13.5946 20.1991 16.7515C19.9843 18.5885 18.5094 20.0271 16.683 20.2313C13.5954 20.5763 10.404 20.5763 7.31649 20.2313C5.49011 20.0271 4.01521 18.5885 3.80036 16.7515C3.43113 13.5946 3.43113 10.4054 3.80036 7.24849C4.01521 5.41153 5.49011 3.97288 7.31649 3.76876Z" fill="#FEA801"/>
</svg>
