<svg width="16" height="16" viewBox="0 0 13 14" fill="none" xmlns="http://www.w3.org/2000/svg">
<path fill-rule="evenodd" clip-rule="evenodd" d="M12.803 2.6105C12.9312 2.80458 12.9098 3.06832 12.739 3.23917L6.61071 9.36743C6.54789 9.43025 6.46947 9.47519 6.38352 9.49765L3.83123 10.1643C3.74799 10.1861 3.66218 10.1856 3.58156 10.1651C3.49585 10.1433 3.416 10.0988 3.35133 10.0341C3.22581 9.90858 3.17625 9.72592 3.22111 9.55418L3.88778 7.00189C3.90742 6.92669 3.94428 6.85241 3.99527 6.79414L10.1462 0.646447C10.2001 0.592604 10.265 0.552307 10.3355 0.527754C10.3879 0.50955 10.4433 0.5 10.4998 0.5C10.6324 0.5 10.7596 0.552678 10.8533 0.646447L12.739 2.53206C12.7634 2.55647 12.7847 2.58278 12.803 2.6105ZM11.6783 2.88562L10.4998 1.70711L4.82102 7.38588L4.40436 8.98106L5.99954 8.56439L11.6783 2.88562Z" fill="#61646B"/>
<path d="M11.594 10.4402C11.7763 8.8818 11.8343 7.31252 11.768 5.74719C11.7648 5.67225 11.793 5.59932 11.8461 5.54628L12.5016 4.89073C12.5822 4.81013 12.7199 4.86129 12.7275 4.97503C12.8508 6.8348 12.804 8.70302 12.5873 10.5564C12.4296 11.9047 11.3467 12.9614 10.0053 13.1113C7.69425 13.3696 5.30536 13.3696 2.99431 13.1113C1.65294 12.9614 0.570049 11.9047 0.412347 10.5564C0.135988 8.19351 0.135988 5.80649 0.412347 3.44362C0.570049 2.09527 1.65294 1.03859 2.99431 0.888675C4.74748 0.692732 6.54544 0.645432 8.32023 0.746774C8.43461 0.753305 8.48676 0.891717 8.40575 0.972729L7.74404 1.63443C7.69158 1.6869 7.61964 1.71507 7.54549 1.71257C6.0612 1.66251 4.56683 1.71915 3.10538 1.88249C2.21864 1.98159 1.50832 2.68134 1.40558 3.55979C1.13825 5.84547 1.13825 8.15452 1.40558 10.4402C1.50832 11.3187 2.21864 12.0184 3.10538 12.1175C5.34262 12.3675 7.657 12.3675 9.89423 12.1175C10.781 12.0184 11.4913 11.3187 11.594 10.4402Z" fill="#61646B"/>
</svg>
