<svg width="23" height="25" viewBox="0 0 23 25" fill="none" xmlns="http://www.w3.org/2000/svg">
<path fill-rule="evenodd" clip-rule="evenodd" d="M3.11459 10.4477C3.11459 7.63469 5.38502 5.46875 8.05001 5.46875C9.42375 5.46875 10.6326 6.16889 11.5 7.07483C12.3675 6.16889 13.5763 5.46875 14.95 5.46875C17.615 5.46875 19.8854 7.63469 19.8854 10.4477C19.8854 12.3747 19.1294 14.0692 18.082 15.5016C17.0364 16.9315 15.6687 18.1451 14.3592 19.1312C13.859 19.5079 13.353 19.8553 12.8899 20.1117C12.455 20.3524 11.955 20.5729 11.5 20.5729C11.045 20.5729 10.545 20.3524 10.1102 20.1117C9.64705 19.8553 9.14104 19.5079 8.64085 19.1312C7.33131 18.1451 5.9636 16.9315 4.918 15.5016C3.8706 14.0692 3.11459 12.3747 3.11459 10.4477ZM8.05001 7.03125C6.0574 7.03125 4.55209 8.62406 4.55209 10.4477C4.55209 11.9097 5.12306 13.2708 6.04335 14.5294C6.96545 15.7904 8.20615 16.903 9.45947 17.8468C9.93373 18.204 10.3804 18.5078 10.7625 18.7193C11.1729 18.9465 11.4106 19.0104 11.5 19.0104C11.5895 19.0104 11.8271 18.9465 12.2375 18.7193C12.6196 18.5078 13.0663 18.204 13.5405 17.8468C14.7939 16.903 16.0346 15.7904 16.9567 14.5294C17.877 13.2708 18.4479 11.9097 18.4479 10.4477C18.4479 8.62406 16.9426 7.03125 14.95 7.03125C13.8056 7.03125 12.737 7.7744 12.0698 8.71763C11.9338 8.90996 11.7232 9.02267 11.5 9.02267C11.2768 9.02267 11.0663 8.90996 10.9302 8.71763C10.263 7.7744 9.1944 7.03125 8.05001 7.03125Z" fill="#DDDDDD"/>
</svg>
