<svg width="38" height="38" viewBox="0 0 38 38" fill="none" xmlns="http://www.w3.org/2000/svg">
<rect width="38" height="38" fill="white"/>
<path d="M30.5 19.0699C30.5 12.7186 25.3513 7.56988 19 7.56988C12.6487 7.56988 7.5 12.7186 7.5 19.0699C7.5 24.8099 11.7054 29.5674 17.2031 30.4302V22.3941H14.2832V19.0699H17.2031V16.5363C17.2031 13.6541 18.92 12.0621 21.5468 12.0621C22.805 12.0621 24.1211 12.2867 24.1211 12.2867V15.1168H22.671C21.2424 15.1168 20.7969 16.0032 20.7969 16.9127V19.0699H23.9863L23.4765 22.3941H20.7969V30.4302C26.2946 29.5674 30.5 24.8099 30.5 19.0699Z" fill="#1877F2"/>
</svg>
