<svg width="38" height="38" viewBox="0 0 38 38" fill="none" xmlns="http://www.w3.org/2000/svg">
<rect width="38" height="38" rx="4" fill="#1877F2"/>
<path d="M30 19.5C30 13.1487 24.8513 7.99999 18.5 7.99999C12.1487 7.99999 7 13.1487 7 19.5C7 25.24 11.2054 29.9976 16.7031 30.8603V22.8242H13.7832V19.5H16.7031V16.9664C16.7031 14.0842 18.42 12.4922 21.0468 12.4922C22.305 12.4922 23.6211 12.7168 23.6211 12.7168V15.5469H22.171C20.7424 15.5469 20.2969 16.4333 20.2969 17.3428V19.5H23.4863L22.9765 22.8242H20.2969V30.8603C25.7946 29.9976 30 25.24 30 19.5Z" fill="white"/>
</svg>
