<svg width="24" height="25" viewBox="0 0 24 25" fill="none" xmlns="http://www.w3.org/2000/svg">
<rect width="24" height="24" transform="translate(0 0.5)" fill="#1877F2"/>
<path d="M23.5 12.5698C23.5 6.21857 18.3513 1.06985 12 1.06985C5.64872 1.06985 0.5 6.21857 0.5 12.5698C0.5 18.3098 4.70538 23.0674 10.2031 23.9301V15.8941H7.2832V12.5698H10.2031V10.0363C10.2031 7.15407 11.92 5.56204 14.5468 5.56204C15.805 5.56204 17.1211 5.78665 17.1211 5.78665V8.61672H15.671C14.2424 8.61672 13.7969 9.50319 13.7969 10.4126V12.5698H16.9863L16.4765 15.8941H13.7969V23.9301C19.2946 23.0674 23.5 18.3098 23.5 12.5698Z" fill="white"/>
</svg>
