<svg width="24" height="25" viewBox="0 0 24 25" fill="none" xmlns="http://www.w3.org/2000/svg">
<path d="M8.49911 5.46875C5.83412 5.46875 3.56369 7.63469 3.56369 10.4477C3.56369 12.3883 4.39969 14.0221 5.50766 15.3754C6.61182 16.7242 8.03637 17.8563 9.32421 18.8038L11.5462 20.4386C11.7896 20.6177 12.1087 20.6177 12.352 20.4386L14.574 18.8038C15.8618 17.8563 17.2864 16.7242 18.3906 15.3754C19.4985 14.0221 20.3345 12.3883 20.3345 10.4477C20.3345 7.63469 18.0641 5.46875 15.3991 5.46875C14.0254 5.46875 12.8166 6.16889 11.9491 7.07483C11.0817 6.16889 9.87285 5.46875 8.49911 5.46875Z" fill="#FF6B00"/>
</svg>
