<svg width="38" height="38" viewBox="0 0 38 38" fill="none" xmlns="http://www.w3.org/2000/svg">
<rect width="38" height="38" rx="4" fill="white"/>
<path fill-rule="evenodd" clip-rule="evenodd" d="M30.54 18.7614C30.54 17.9459 30.4668 17.1618 30.3309 16.4091H19.5V20.8575H25.6891C25.4225 22.295 24.6123 23.513 23.3943 24.3284V27.2139H27.1109C29.2855 25.2118 30.54 22.2636 30.54 18.7614Z" fill="#4285F4"/>
<path fill-rule="evenodd" clip-rule="evenodd" d="M19.5 29.9998C22.605 29.9998 25.2081 28.9701 27.1109 27.2137L23.3943 24.3283C22.3645 25.0183 21.0472 25.426 19.5 25.426C16.5047 25.426 13.9695 23.403 13.0652 20.6848H9.22314V23.6644C11.1154 27.4228 15.0045 29.9998 19.5 29.9998Z" fill="#03C75A"/>
<path fill-rule="evenodd" clip-rule="evenodd" d="M13.0652 20.6851C12.8352 19.9951 12.7045 19.258 12.7045 18.5001C12.7045 17.7421 12.8352 17.0051 13.0652 16.3151V13.3355H9.22318C8.44432 14.888 8 16.6444 8 18.5001C8 20.3557 8.44432 22.1121 9.22318 23.6646L13.0652 20.6851Z" fill="#FBBC05"/>
<path fill-rule="evenodd" clip-rule="evenodd" d="M19.5 11.5739C21.1884 11.5739 22.7043 12.1541 23.8961 13.2936L27.1945 9.99523C25.2029 8.13955 22.5997 7 19.5 7C15.0045 7 11.1154 9.57705 9.22314 13.3355L13.0652 16.315C13.9695 13.5968 16.5047 11.5739 19.5 11.5739Z" fill="#EA4335"/>
</svg>
