<svg width="21" height="19" viewBox="0 0 21 19" fill="none" xmlns="http://www.w3.org/2000/svg">
<path d="M6.45 0.84375C3.32154 0.84375 0.65625 3.35624 0.65625 6.61934C0.65625 8.87041 1.63764 10.7656 2.9383 12.3355C4.23449 13.9 5.90679 15.2133 7.4186 16.3124L10.027 18.2088C10.3127 18.4165 10.6873 18.4165 10.973 18.2088L13.5814 16.3124C15.0932 15.2133 16.7655 13.9 18.0617 12.3355C19.3624 10.7656 20.3438 8.87041 20.3438 6.61934C20.3438 3.35624 17.6785 0.84375 14.55 0.84375C12.9373 0.84375 11.5183 1.65592 10.5 2.7068C9.4817 1.65592 8.06266 0.84375 6.45 0.84375Z" fill="#FF6B00"/>
</svg>
