<svg width="19" height="18" viewBox="0 0 19 18" fill="none" xmlns="http://www.w3.org/2000/svg">
<path fill-rule="evenodd" clip-rule="evenodd" d="M5.75003 9.59241C5.75003 7.52134 7.42897 5.84241 9.50003 5.84241C11.5711 5.84241 13.25 7.52134 13.25 9.59241C13.25 11.6635 11.5711 13.3424 9.50003 13.3424C7.42897 13.3424 5.75003 11.6635 5.75003 9.59241ZM9.50003 7.34241C8.25739 7.34241 7.25003 8.34977 7.25003 9.59241C7.25003 10.835 8.25739 11.8424 9.50003 11.8424C10.7427 11.8424 11.75 10.835 11.75 9.59241C11.75 8.34977 10.7427 7.34241 9.50003 7.34241Z" fill="#FEA801"/>
<path fill-rule="evenodd" clip-rule="evenodd" d="M8.11617 2.34241C7.071 2.34241 6.22372 3.18969 6.22372 4.23486C6.22372 4.90082 5.7125 5.45524 5.04872 5.50915L2.81912 5.69022C2.38135 5.72578 2.02132 6.0495 1.93961 6.48104C1.49087 8.85105 1.45741 11.281 1.84072 13.6625L1.93797 14.2667C2.02982 14.8373 2.49945 15.2714 3.07551 15.3182L5.01783 15.4759C8.00106 15.7182 10.999 15.7182 13.9822 15.4759L15.9246 15.3182C16.5006 15.2714 16.9703 14.8373 17.0621 14.2667L17.1593 13.6625C17.5427 11.281 17.5092 8.85105 17.0605 6.48104C16.9787 6.0495 16.6187 5.72578 16.181 5.69022L13.9514 5.50915C13.2876 5.45524 12.7764 4.90082 12.7764 4.23486C12.7764 3.18969 11.9291 2.34241 10.8839 2.34241H8.11617ZM4.7298 4.03011C4.83565 2.25185 6.31132 0.842407 8.11617 0.842407H10.8839C12.6888 0.842407 14.1644 2.25184 14.2703 4.03011L16.3024 4.19514C17.4133 4.28537 18.3269 5.10687 18.5343 6.20199C19.0153 8.74275 19.0512 11.3478 18.6403 13.9008L18.543 14.505C18.3414 15.7576 17.3105 16.7106 16.046 16.8133L14.1037 16.971C11.0396 17.2198 7.96045 17.2198 4.89641 16.971L2.95409 16.8133C1.68956 16.7106 0.658646 15.7576 0.457035 14.505L0.359784 13.9008C-0.051149 11.3478 -0.015278 8.74275 0.465797 6.20199C0.673149 5.10687 1.58678 4.28537 2.6977 4.19514L4.7298 4.03011Z" fill="#FEA801"/>
</svg>
