<svg width="17" height="16" viewBox="0 0 17 16" fill="none" xmlns="http://www.w3.org/2000/svg">
<path fill-rule="evenodd" clip-rule="evenodd" d="M10.4844 10.9597C8.16545 12.817 4.77094 12.6709 2.62126 10.5212C0.314724 8.21463 0.314724 4.475 2.62126 2.16847C4.92779 -0.138066 8.66742 -0.138065 10.974 2.16847C13.1236 4.31815 13.2698 7.71265 11.4125 10.0316L15.9237 14.5428C16.18 14.7991 16.18 15.2146 15.9237 15.4709C15.6674 15.7272 15.2519 15.7272 14.9956 15.4709L10.4844 10.9597ZM3.54934 9.59309C1.75536 7.79912 1.75536 4.89052 3.54934 3.09655C5.34331 1.30258 8.25191 1.30258 10.0459 3.09655C11.8385 4.8892 11.8398 7.79485 10.0498 9.58914C10.0485 9.59044 10.0472 9.59175 10.0459 9.59307C10.0445 9.59438 10.0432 9.59571 10.0419 9.59703C8.24765 11.3871 5.34199 11.3857 3.54934 9.59309Z" fill="white"/>
</svg>
