<svg width="16" height="16" viewBox="0 0 11 14" fill="none" xmlns="http://www.w3.org/2000/svg">
<path d="M4.16683 0.5C3.89069 0.5 3.66683 0.723858 3.66683 1V1.5H0.833496C0.557354 1.5 0.333496 1.72386 0.333496 2C0.333496 2.27614 0.557354 2.5 0.833496 2.5H10.1668C10.443 2.5 10.6668 2.27614 10.6668 2C10.6668 1.72386 10.443 1.5 10.1668 1.5H7.3335V1C7.3335 0.723858 7.10964 0.5 6.8335 0.5H4.16683Z" fill="#61646B"/>
<path d="M4.16683 6.1C4.44297 6.1 4.66683 6.32385 4.66683 6.6L4.66683 11.2667C4.66683 11.5428 4.44297 11.7667 4.16683 11.7667C3.89069 11.7667 3.66683 11.5428 3.66683 11.2667L3.66683 6.6C3.66683 6.32385 3.89069 6.1 4.16683 6.1Z" fill="#61646B"/>
<path d="M7.3335 6.6C7.3335 6.32385 7.10964 6.1 6.8335 6.1C6.55735 6.1 6.3335 6.32385 6.3335 6.6V11.2667C6.3335 11.5428 6.55735 11.7667 6.8335 11.7667C7.10964 11.7667 7.3335 11.5428 7.3335 11.2667V6.6Z" fill="#61646B"/>
<path fill-rule="evenodd" clip-rule="evenodd" d="M1.49445 4.27812C1.52258 4.0249 1.73661 3.83333 1.99139 3.83333H9.00893C9.26371 3.83333 9.47774 4.0249 9.50587 4.27812L9.63931 5.47901C9.88118 7.6559 9.88118 9.85288 9.63931 12.0298L9.62617 12.148C9.53016 13.0121 8.86046 13.7011 7.99944 13.8216C6.34134 14.0538 4.65898 14.0538 3.00088 13.8216C2.13986 13.7011 1.47016 13.0121 1.37415 12.148L1.36101 12.0298C1.11914 9.85287 1.11914 7.6559 1.36101 5.47901L1.49445 4.27812ZM2.43891 4.83333L2.3549 5.58945C2.12118 7.69293 2.12118 9.81584 2.3549 11.9193L2.36803 12.0375C2.41357 12.4474 2.73118 12.7741 3.13953 12.8313C4.70565 13.0506 6.29467 13.0506 7.86079 12.8313C8.26914 12.7741 8.58675 12.4474 8.63229 12.0375L8.64542 11.9193C8.87914 9.81584 8.87914 7.69293 8.64542 5.58945L8.56141 4.83333H2.43891Z" fill="#61646B"/>
</svg>
