<svg width="19" height="18" viewBox="0 0 19 18" fill="none" xmlns="http://www.w3.org/2000/svg">
<path d="M4.48359 2.25948C3.33916 2.38738 2.4231 3.29063 2.29069 4.42274C1.935 7.46389 1.935 10.5361 2.29069 13.5773C2.4231 14.7094 3.33915 15.6126 4.48359 15.7405C7.46041 16.0732 10.54 16.0732 13.5169 15.7405C14.6613 15.6126 15.5774 14.7094 15.7098 13.5773C15.9653 11.3921 16.0373 9.19092 15.9256 6.99674C15.9227 6.94008 15.9439 6.88481 15.984 6.84469L17.0227 5.80591C17.143 5.68568 17.3484 5.76086 17.3612 5.93042C17.5572 8.53534 17.5034 11.1544 17.1996 13.7515C16.9848 15.5885 15.5099 17.0271 13.6835 17.2313C10.5959 17.5763 7.40453 17.5763 4.31698 17.2313C2.4906 17.0271 1.0157 15.5885 0.800849 13.7515C0.431618 10.5946 0.431618 7.40541 0.800849 4.24849C1.0157 2.41153 2.4906 0.972883 4.31698 0.768758C7.40453 0.423679 10.5959 0.423679 13.6835 0.768758C14.3267 0.840652 14.9264 1.06568 15.4427 1.40732C15.5444 1.47454 15.5544 1.61738 15.4683 1.70353L14.6654 2.50641C14.5997 2.57208 14.4979 2.58313 14.416 2.53926C14.1426 2.39277 13.8388 2.29545 13.5169 2.25948C10.54 1.92677 7.46041 1.92677 4.48359 2.25948Z" fill="#DDDDDD"/>
<path d="M18.0305 3.03034C18.3234 2.73744 18.3234 2.26257 18.0305 1.96968C17.7377 1.67678 17.2628 1.67678 16.9699 1.96968L8.50021 10.4393L6.03054 7.96968C5.73765 7.67678 5.26278 7.67678 4.96988 7.96968C4.67699 8.26257 4.67699 8.73744 4.96988 9.03034L7.96988 12.0303C8.26278 12.3232 8.73765 12.3232 9.03054 12.0303L18.0305 3.03034Z" fill="#DDDDDD"/>
</svg>
