<svg width="21" height="21" viewBox="0 0 21 21" fill="none" xmlns="http://www.w3.org/2000/svg">
<path d="M14.0576 7.87044C14.3139 7.61416 14.3139 7.19865 14.0576 6.94236C13.8013 6.68608 13.3858 6.68608 13.1295 6.94236L10.5 9.57191L7.87042 6.94236C7.61414 6.68608 7.19862 6.68608 6.94234 6.94236C6.68606 7.19865 6.68606 7.61416 6.94234 7.87044L9.57189 10.5L6.94233 13.1295C6.68605 13.3858 6.68605 13.8013 6.94233 14.0576C7.19861 14.3139 7.61413 14.3139 7.87041 14.0576L10.5 11.4281L13.1295 14.0576C13.3858 14.3139 13.8013 14.3139 14.0576 14.0576C14.3139 13.8013 14.3139 13.3858 14.0576 13.1295L11.428 10.5L14.0576 7.87044Z" fill="white"/>
</svg>
