<svg width="21" height="18" viewBox="0 0 21 18" fill="none" xmlns="http://www.w3.org/2000/svg">
<path fill-rule="evenodd" clip-rule="evenodd" d="M0.65625 5.90083C0.65625 2.63773 3.32154 0.125244 6.45 0.125244C8.06266 0.125244 9.4817 0.937412 10.5 1.98829C11.5183 0.937412 12.9373 0.125244 14.55 0.125244C17.6785 0.125244 20.3437 2.63773 20.3437 5.90083C20.3437 8.13609 19.4563 10.1018 18.2267 11.7634C16.9993 13.4221 15.3937 14.8298 13.8564 15.9737C13.2692 16.4106 12.6752 16.8137 12.1316 17.111C11.6211 17.3903 11.0341 17.6461 10.5 17.6461C9.96591 17.6461 9.37893 17.3903 8.86845 17.111C8.32479 16.8137 7.73077 16.4106 7.1436 15.9737C5.60631 14.8298 4.00073 13.4221 2.7733 11.7634C1.54374 10.1018 0.65625 8.13609 0.65625 5.90083ZM6.45 1.93774C4.11085 1.93774 2.34375 3.78541 2.34375 5.90083C2.34375 7.59672 3.01401 9.17566 4.09435 10.6356C5.17682 12.0984 6.63329 13.389 8.10458 14.4838C8.66132 14.8981 9.18571 15.2506 9.63426 15.4959C10.116 15.7594 10.395 15.8336 10.5 15.8336C10.605 15.8336 10.884 15.7594 11.3657 15.4959C11.8143 15.2506 12.3387 14.8981 12.8954 14.4838C14.3667 13.389 15.8232 12.0984 16.9056 10.6356C17.986 9.17566 18.6562 7.59672 18.6562 5.90083C18.6562 3.78541 16.8892 1.93774 14.55 1.93774C13.2066 1.93774 11.9521 2.7998 11.1689 3.89394C11.0092 4.11705 10.762 4.24779 10.5 4.24779C10.238 4.24779 9.99083 4.11705 9.83111 3.89394C9.04785 2.7998 7.79342 1.93774 6.45 1.93774Z" fill="white"/>
</svg>
